<svg width="32" height="32" viewBox="0 0 32 32" fill="none" xmlns="http://www.w3.org/2000/svg">
<path d="M14.6667 18.6666H17.3333C18.0406 18.6666 18.7189 18.3857 19.219 17.8856C19.719 17.3855 20 16.7072 20 16C20 15.2927 19.719 14.6145 19.219 14.1144C18.7189 13.6143 18.0406 13.3333 17.3333 13.3333H13.3333C12.5333 13.3333 11.8667 13.6 11.4667 14.1333L4 21.3333" stroke="white" stroke-width="2" stroke-linecap="round" stroke-linejoin="round"/>
<path d="M9.3335 26.6667L11.4668 24.8C11.8668 24.2667 12.5335 24 13.3335 24H18.6668C20.1335 24 21.4668 23.4667 22.4002 22.4L28.5335 16.5333C29.048 16.0471 29.3483 15.3764 29.3683 14.6688C29.3883 13.9611 29.1264 13.2745 28.6402 12.76C28.1539 12.2455 27.4832 11.9452 26.7756 11.9252C26.0679 11.9052 25.3813 12.1671 24.8668 12.6533L19.2668 17.8534" stroke="white" stroke-width="2" stroke-linecap="round" stroke-linejoin="round"/>
<path d="M2.6665 20L10.6665 28" stroke="white" stroke-width="2" stroke-linecap="round" stroke-linejoin="round"/>
<path d="M26 11.3333C26.9334 10.4 28 9.2 28 7.73333C28.0932 6.91857 27.9086 6.09621 27.476 5.39952C27.0433 4.70283 26.3882 4.17263 25.6166 3.89486C24.845 3.61708 24.0022 3.608 23.2248 3.86909C22.4473 4.13017 21.7809 4.64613 21.3334 5.33333C20.8574 4.69944 20.1908 4.23484 19.4313 4.00771C18.6718 3.78059 17.8596 3.80292 17.1137 4.07142C16.3679 4.33992 15.7278 4.84045 15.2874 5.49953C14.8469 6.15861 14.6294 6.94152 14.6667 7.73333C14.6667 9.33333 15.7334 10.4 16.6667 11.4667L21.3334 16L26 11.3333Z" stroke="white" stroke-width="2" stroke-linecap="round" stroke-linejoin="round"/>
</svg>
