<svg xmlns="http://www.w3.org/2000/svg" xmlns:xlink="http://www.w3.org/1999/xlink" viewBox="0 0 48 48" width="48" height="48" preserveAspectRatio="xMidYMid meet" style="width: 100%; height: 100%; transform: translate3d(0px, 0px, 0px); content-visibility: visible;"><defs><clipPath id="__lottie_element_14"><rect width="48" height="48" x="0" y="0"></rect></clipPath><linearGradient id="__lottie_element_18" spreadMethod="pad" gradientUnits="userSpaceOnUse" x1="-10.289999961853027" y1="-12.001999855041504" x2="17.55299949645996" y2="21.22800064086914"><stop offset="0%" stop-color="rgb(255,218,28)"></stop><stop offset="50%" stop-color="rgb(254,200,17)"></stop><stop offset="100%" stop-color="rgb(254,183,5)"></stop></linearGradient></defs><g clip-path="url(#__lottie_element_14)"><g transform="matrix(1.001449704170227,0.0011021805694326758,-0.0011021805694326758,1.001449704170227,24,24.29599952697754)" opacity="1" style="display: block;"><g opacity="1" transform="matrix(1,0,0,1,0,0)"><path fill="url(#__lottie_element_18)" fill-opacity="1" d=" M0.9129999876022339,-19.110000610351562 C0.9129999876022339,-19.110000610351562 6.390999794006348,-6.822000026702881 6.390999794006348,-6.822000026702881 C6.390999794006348,-6.822000026702881 19.768999099731445,-5.408999919891357 19.768999099731445,-5.408999919891357 C20.6299991607666,-5.317999839782715 20.97599983215332,-4.250999927520752 20.33300018310547,-3.671999931335449 C20.33300018310547,-3.671999931335449 10.34000015258789,5.333000183105469 10.34000015258789,5.333000183105469 C10.34000015258789,5.333000183105469 13.130999565124512,18.493999481201172 13.130999565124512,18.493999481201172 C13.310999870300293,19.340999603271484 12.402999877929688,20 11.652999877929688,19.56800079345703 C11.652999877929688,19.56800079345703 0,12.845000267028809 0,12.845000267028809 C0,12.845000267028809 -11.652999877929688,19.566999435424805 -11.652999877929688,19.566999435424805 C-12.402999877929688,19.999000549316406 -13.3100004196167,19.34000015258789 -13.130999565124512,18.493000030517578 C-13.130999565124512,18.493000030517578 -10.34000015258789,5.331999778747559 -10.34000015258789,5.331999778747559 C-10.34000015258789,5.331999778747559 -20.33300018310547,-3.6730000972747803 -20.33300018310547,-3.6730000972747803 C-20.97599983215332,-4.251999855041504 -20.628999710083008,-5.318999767303467 -19.768999099731445,-5.409999847412109 C-19.768999099731445,-5.409999847412109 -6.390999794006348,-6.822999954223633 -6.390999794006348,-6.822999954223633 C-6.390999794006348,-6.822999954223633 -0.9129999876022339,-19.111000061035156 -0.9129999876022339,-19.111000061035156 C-0.5609999895095825,-19.900999069213867 0.5609999895095825,-19.900999069213867 0.9129999876022339,-19.110000610351562z"></path></g></g></g></svg>