<svg width="32" height="32" viewBox="0 0 32 32" fill="none" xmlns="http://www.w3.org/2000/svg">
<path d="M3.33334 22.6667C2.40191 18.271 2.40191 13.729 3.33334 9.33333C3.45573 8.88695 3.69219 8.4801 4.01948 8.15281C4.34678 7.82552 4.75362 7.58905 5.20001 7.46667C12.3513 6.28194 19.6487 6.28194 26.8 7.46667C27.2464 7.58905 27.6532 7.82552 27.9805 8.15281C28.3078 8.4801 28.5443 8.88695 28.6667 9.33333C29.5981 13.729 29.5981 18.271 28.6667 22.6667C28.5443 23.1131 28.3078 23.5199 27.9805 23.8472C27.6532 24.1745 27.2464 24.4109 26.8 24.5333C19.6488 25.7183 12.3513 25.7183 5.20001 24.5333C4.75362 24.4109 4.34678 24.1745 4.01948 23.8472C3.69219 23.5199 3.45573 23.1131 3.33334 22.6667Z" stroke="black" stroke-width="2" stroke-linecap="round" stroke-linejoin="round"/>
<path d="M13.3335 20L20.0002 16L13.3335 12V20Z" stroke="black" stroke-width="2" stroke-linecap="round" stroke-linejoin="round"/>
</svg>
